<svg width="2308" height="115" viewBox="0 0 2308 115" fill="none" xmlns="http://www.w3.org/2000/svg">
<g clip-path="url(#clip0_477_38)">
<path d="M1043.87 14.7197H1062.06C1063.57 14.7197 1064.85 15.269 1065.91 16.3677C1067.01 17.4256 1067.56 18.7074 1067.56 20.2129V43.8335H1056.63V27.4761C1056.63 26.2554 1056.02 25.645 1054.8 25.645H1051.14C1049.96 25.645 1049.37 26.2554 1049.37 27.4761V89.3047C1049.37 90.4847 1049.96 91.0747 1051.14 91.0747H1054.8C1056.02 91.0747 1056.63 90.4847 1056.63 89.3047V72.8862H1067.56V96.5679C1067.56 98.0734 1067.01 99.3551 1065.91 100.413C1064.85 101.471 1063.57 102 1062.06 102H1043.87C1042.37 102 1041.09 101.471 1040.03 100.413C1038.97 99.3551 1038.44 98.0734 1038.44 96.5679V20.2129C1038.44 18.7074 1038.97 17.4256 1040.03 16.3677C1041.09 15.269 1042.37 14.7197 1043.87 14.7197ZM1062.06 16.5508H1043.87C1042.9 16.5508 1042.04 16.917 1041.31 17.6494C1040.62 18.3411 1040.27 19.1956 1040.27 20.2129V96.5679C1040.27 97.5444 1040.62 98.3989 1041.31 99.1313C1042.04 99.8231 1042.9 100.169 1043.87 100.169H1062.06C1063.08 100.169 1063.93 99.8231 1064.63 99.1313C1065.36 98.3989 1065.72 97.5444 1065.72 96.5679V74.7173H1058.46V89.3047C1058.46 90.2812 1058.09 91.1357 1057.36 91.8682C1056.67 92.5599 1055.82 92.9058 1054.8 92.9058H1051.14C1050.16 92.9058 1049.31 92.5599 1048.57 91.8682C1047.88 91.1357 1047.54 90.2812 1047.54 89.3047V27.4761C1047.54 26.4588 1047.88 25.6043 1048.57 24.9126C1049.31 24.1802 1050.16 23.814 1051.14 23.814H1054.8C1055.82 23.814 1056.67 24.1802 1057.36 24.9126C1058.09 25.6043 1058.46 26.4588 1058.46 27.4761V42.0024H1065.72V20.2129C1065.72 19.1956 1065.36 18.3411 1064.63 17.6494C1063.93 16.917 1063.08 16.5508 1062.06 16.5508ZM1085.19 91.0747H1088.86C1090.08 91.0747 1090.69 90.4847 1090.69 89.3047V27.4761C1090.69 26.2554 1090.08 25.645 1088.86 25.645H1085.19C1084.01 25.645 1083.42 26.2554 1083.42 27.4761V89.3047C1083.42 90.4847 1084.01 91.0747 1085.19 91.0747ZM1081.59 14.7197H1092.52C1095 14.7197 1097.14 15.6149 1098.93 17.4053C1100.72 19.1956 1101.61 21.3319 1101.61 23.814V92.9058C1101.61 95.4285 1100.72 97.5648 1098.93 99.3145C1097.14 101.105 1095 102 1092.52 102H1081.59C1079.07 102 1076.93 101.105 1075.18 99.3145C1073.39 97.5648 1072.5 95.4285 1072.5 92.9058V23.814C1072.5 21.3319 1073.39 19.1956 1075.18 17.4053C1076.93 15.6149 1079.07 14.7197 1081.59 14.7197ZM1088.86 92.9058H1085.19C1084.22 92.9058 1083.36 92.5599 1082.63 91.8682C1081.94 91.1357 1081.59 90.2812 1081.59 89.3047V27.4761C1081.59 26.4588 1081.94 25.6043 1082.63 24.9126C1083.36 24.1802 1084.22 23.814 1085.19 23.814H1088.86C1089.87 23.814 1090.73 24.1802 1091.42 24.9126C1092.15 25.6043 1092.52 26.4588 1092.52 27.4761V89.3047C1092.52 90.2812 1092.15 91.1357 1091.42 91.8682C1090.73 92.5599 1089.87 92.9058 1088.86 92.9058ZM1092.52 16.5508H1081.59C1079.6 16.5508 1077.89 17.2629 1076.47 18.687C1075.04 20.1112 1074.33 21.8201 1074.33 23.814V92.9058C1074.33 94.8996 1075.04 96.6086 1076.47 98.0327C1077.89 99.4569 1079.6 100.169 1081.59 100.169H1092.52C1094.51 100.169 1096.22 99.4569 1097.65 98.0327C1099.07 96.6086 1099.78 94.8996 1099.78 92.9058V23.814C1099.78 21.8201 1099.07 20.1112 1097.65 18.687C1096.22 17.2629 1094.51 16.5508 1092.52 16.5508ZM1126.58 14.7197H1137.44V102H1126.82L1117.48 61.9609V102H1106.56V14.7197H1117.6L1126.58 52.9277V14.7197ZM1128.35 16.5508V68.6748L1124.81 53.355L1116.2 16.5508H1108.39V100.169H1115.65V46.2139L1119.25 61.5337L1128.29 100.169H1135.67V16.5508H1128.35ZM1142.32 14.7197H1171.44V25.645H1162.34V102H1151.42V25.645H1142.32V14.7197ZM1144.15 16.5508V23.814H1153.25V100.169H1160.51V23.814H1169.61V16.5508H1144.15ZM1177.54 14.7197H1194.87L1202.14 102H1191.21L1190.3 91.0747H1182.12L1181.2 102H1170.28L1177.54 14.7197ZM1179.25 16.5508L1172.23 100.169H1179.55L1180.35 90.9526L1180.47 89.3047H1191.94L1192.07 90.9526L1192.86 100.169H1200.12L1193.17 16.5508H1179.25ZM1184.38 42.0635H1188.04L1191.15 80.0273L1191.33 81.9805H1181.08L1181.2 80.0273L1184.38 42.0635ZM1186.21 42.2466L1183.03 80.2104H1189.38L1186.21 42.2466ZM1212.45 14.7197H1230.64C1232.15 14.7197 1233.43 15.269 1234.49 16.3677C1235.58 17.4256 1236.13 18.7074 1236.13 20.2129V43.8335H1225.21V27.4761C1225.21 26.2554 1224.6 25.645 1223.38 25.645H1219.72C1218.54 25.645 1217.95 26.2554 1217.95 27.4761V89.3047C1217.95 90.4847 1218.54 91.0747 1219.72 91.0747H1223.38C1224.6 91.0747 1225.21 90.4847 1225.21 89.3047V72.8862H1236.13V96.5679C1236.13 98.0734 1235.58 99.3551 1234.49 100.413C1233.43 101.471 1232.15 102 1230.64 102H1212.45C1210.95 102 1209.67 101.471 1208.61 100.413C1207.55 99.3551 1207.02 98.0734 1207.02 96.5679V20.2129C1207.02 18.7074 1207.55 17.4256 1208.61 16.3677C1209.67 15.269 1210.95 14.7197 1212.45 14.7197ZM1230.64 16.5508H1212.45C1211.48 16.5508 1210.62 16.917 1209.89 17.6494C1209.2 18.3411 1208.85 19.1956 1208.85 20.2129V96.5679C1208.85 97.5444 1209.2 98.3989 1209.89 99.1313C1210.62 99.8231 1211.48 100.169 1212.45 100.169H1230.64C1231.66 100.169 1232.51 99.8231 1233.2 99.1313C1233.94 98.3989 1234.3 97.5444 1234.3 96.5679V74.7173H1227.04V89.3047C1227.04 90.2812 1226.67 91.1357 1225.94 91.8682C1225.25 92.5599 1224.4 92.9058 1223.38 92.9058H1219.72C1218.74 92.9058 1217.88 92.5599 1217.15 91.8682C1216.46 91.1357 1216.11 90.2812 1216.11 89.3047V27.4761C1216.11 26.4588 1216.46 25.6043 1217.15 24.9126C1217.88 24.1802 1218.74 23.814 1219.72 23.814H1223.38C1224.4 23.814 1225.25 24.1802 1225.94 24.9126C1226.67 25.6043 1227.04 26.4588 1227.04 27.4761V42.0024H1234.3V20.2129C1234.3 19.1956 1233.94 18.3411 1233.2 17.6494C1232.51 16.917 1231.66 16.5508 1230.64 16.5508ZM1241.08 14.7197H1270.19V25.645H1261.1V102H1250.17V25.645H1241.08V14.7197ZM1242.91 16.5508V23.814H1252V100.169H1259.27V23.814H1268.36V16.5508H1242.91Z" fill="#E2E8F0" fill-opacity="0.4"/>
</g>
<defs>
<clipPath id="clip0_477_38">
<rect width="2308" height="115" fill="white"/>
</clipPath>
</defs>
</svg>
