<svg width="115" height="2308" viewBox="0 0 115 2308" fill="none" xmlns="http://www.w3.org/2000/svg">
<g clip-path="url(#clip0_444_4)">
<path d="M97 1059.1V1075.3C97 1080.77 95.5333 1084.87 92.6 1087.6C89.6667 1090.33 85.3667 1091.7 79.7 1091.7H72.8C67.1333 1091.7 62.8333 1090.33 59.9 1087.6C56.9667 1084.87 55.5 1080.77 55.5 1075.3L55.5 1070.1H27V1059.1H97ZM65.5 1075.3C65.5 1077.1 66 1078.43 67 1079.3C68 1080.23 69.7 1080.7 72.1 1080.7H80.4C82.8 1080.7 84.5 1080.23 85.5 1079.3C86.5 1078.43 87 1077.1 87 1075.3V1070.1H65.5V1075.3ZM97 1097.67L97 1113.97C97 1119.64 95.6667 1123.77 93 1126.37C90.4 1128.97 86.3667 1130.27 80.9 1130.27H76.6C69.3333 1130.27 64.7333 1127.87 62.8 1123.07H62.6C61.8 1125.74 60.1667 1127.61 57.7 1128.67C55.2333 1129.81 51.9333 1130.37 47.8 1130.37H35.5C33.5 1130.37 31.8667 1130.44 30.6 1130.57C29.4 1130.71 28.2 1131.04 27 1131.57V1120.37C28.1333 1119.97 29.2 1119.71 30.2 1119.57C31.2 1119.44 33 1119.37 35.6 1119.37H48.4C51.6 1119.37 53.8333 1118.84 55.1 1117.77C56.3667 1116.77 57 1115.01 57 1112.47V1108.67H27V1097.67H97ZM67 1112.67C67 1114.87 67.5667 1116.51 68.7 1117.57C69.8333 1118.71 71.7333 1119.27 74.4 1119.27H79.8C82.3333 1119.27 84.1667 1118.81 85.3 1117.87C86.4333 1117.01 87 1115.61 87 1113.67V1108.67H67V1112.67ZM26 1153.91C26 1148.51 27.5333 1144.37 30.6 1141.51C33.6667 1138.64 38 1137.21 43.6 1137.21H80.4C86 1137.21 90.3333 1138.64 93.4 1141.51C96.4667 1144.37 98 1148.51 98 1153.91C98 1159.31 96.4667 1163.44 93.4 1166.31C90.3333 1169.17 86 1170.61 80.4 1170.61H43.6C38 1170.61 33.6667 1169.17 30.6 1166.31C27.5333 1163.44 26 1159.31 26 1153.91ZM36 1153.91C36 1157.71 38.3 1159.61 42.9 1159.61H81.1C85.7 1159.61 88 1157.71 88 1153.91C88 1150.11 85.7 1148.21 81.1 1148.21H42.9C38.3 1148.21 36 1150.11 36 1153.91ZM26.6 1180.25C26.6 1178.25 26.7333 1176.55 27 1175.15H37C36.7333 1176.22 36.6 1177.42 36.6 1178.75C36.6 1180.95 37.1333 1182.59 38.2 1183.65C39.3333 1184.72 41.0333 1185.25 43.3 1185.25H97V1196.25H43.6C37.8667 1196.25 33.6 1194.92 30.8 1192.25C28 1189.65 26.6 1185.65 26.6 1180.25ZM97 1204.12V1234.12H87V1215.12H68.5V1230.22H58.5L58.5 1215.12H37V1234.12H27V1204.12H97ZM26 1255.95C26 1250.68 27.5 1246.65 30.5 1243.85C33.5 1241.11 37.7333 1239.75 43.2 1239.75H80.8C86.2667 1239.75 90.5 1241.11 93.5 1243.85C96.5 1246.65 98 1250.68 98 1255.95C98 1261.21 96.5 1265.21 93.5 1267.95C90.5 1270.75 86.2667 1272.15 80.8 1272.15H73.4L73.4 1261.75H81.5C85.8333 1261.75 88 1259.91 88 1256.25C88 1252.58 85.8333 1250.75 81.5 1250.75H42.4C38.1333 1250.75 36 1252.58 36 1256.25C36 1259.91 38.1333 1261.75 42.4 1261.75H53.1L53.1 1272.15H43.2C37.7333 1272.15 33.5 1270.75 30.5 1267.95C27.5 1265.21 26 1261.21 26 1255.95ZM87 1287.33V1275.83H97V1309.83H87V1298.33H27V1287.33H87ZM26 1329.45C26 1324.12 27.5 1320.09 30.5 1317.35C33.5667 1314.62 37.9333 1313.25 43.6 1313.25H47.6V1323.65H42.8C38.2667 1323.65 36 1325.55 36 1329.35C36 1331.22 36.5333 1332.62 37.6 1333.55C38.7333 1334.55 40.5333 1335.05 43 1335.05C45.9333 1335.05 48.5 1334.39 50.7 1333.05C52.9667 1331.72 55.6667 1329.25 58.8 1325.65C62.8 1321.12 66.4 1317.95 69.6 1316.15C72.8667 1314.35 76.5333 1313.45 80.6 1313.45C86.1333 1313.45 90.4 1314.85 93.4 1317.65C96.4667 1320.45 98 1324.52 98 1329.85C98 1335.12 96.4667 1339.09 93.4 1341.75C90.4 1344.49 86.0667 1345.85 80.4 1345.85H77.5V1335.45H81.1C83.5 1335.45 85.2333 1334.99 86.3 1334.05C87.4333 1333.12 88 1331.75 88 1329.95C88 1326.29 85.7667 1324.45 81.3 1324.45C78.7667 1324.45 76.4 1325.12 74.2 1326.45C72 1327.85 69.3333 1330.35 66.2 1333.95C62.2 1338.55 58.5667 1341.72 55.3 1343.45C52.0333 1345.19 48.2 1346.05 43.8 1346.05C38.0667 1346.05 33.6667 1344.62 30.6 1341.75C27.5333 1338.95 26 1334.85 26 1329.45Z" fill="#E2E8F0" fill-opacity="0.4"/>
</g>
<defs>
<clipPath id="clip0_444_4">
<rect width="2308" height="115" fill="white" transform="matrix(0 1 -1 0 115 0)"/>
</clipPath>
</defs>
</svg>
