<svg width="2308" height="115" viewBox="0 0 2308 115" fill="none" xmlns="http://www.w3.org/2000/svg">
<g clip-path="url(#clip0_453_2)">
<path d="M1033.37 51.0967H1038.8C1040.02 51.0967 1040.63 50.4863 1040.63 49.2656V27.4761C1040.63 26.2554 1040.02 25.645 1038.8 25.645H1033.37V51.0967ZM1022.44 14.7197H1042.46C1044.94 14.7197 1047.08 15.6149 1048.87 17.4053C1050.66 19.1956 1051.56 21.3319 1051.56 23.814V52.9277C1051.56 55.4098 1050.66 57.5461 1048.87 59.3364C1047.08 61.1268 1044.94 62.022 1042.46 62.022H1033.37V102H1022.44V14.7197ZM1031.54 52.9277V23.814H1038.8C1039.82 23.814 1040.67 24.1802 1041.36 24.9126C1042.09 25.6043 1042.46 26.4588 1042.46 27.4761V49.2656C1042.46 50.2829 1042.09 51.1374 1041.36 51.8291C1040.67 52.5615 1039.82 52.9277 1038.8 52.9277H1031.54ZM1042.46 16.5508H1024.27V100.169H1031.54V60.1909H1042.46C1044.45 60.1909 1046.16 59.4788 1047.59 58.0547C1049.01 56.6305 1049.72 54.9215 1049.72 52.9277V23.814C1049.72 21.8201 1049.01 20.1112 1047.59 18.687C1046.16 17.2629 1044.45 16.5508 1042.46 16.5508ZM1067.42 51.0967H1069.19C1070.74 51.0967 1072.04 50.5677 1073.1 49.5098C1074.16 48.4518 1074.69 47.1701 1074.69 45.6646V27.4761C1074.69 26.2554 1074.08 25.645 1072.86 25.645H1067.42V51.0967ZM1056.5 14.7197H1076.52C1079 14.7197 1081.14 15.6149 1082.93 17.4053C1084.72 19.1956 1085.61 21.3319 1085.61 23.814V45.6646C1085.61 49.8149 1084.21 53.4364 1081.4 56.5288C1084.21 59.6619 1085.61 63.3037 1085.61 67.4541V102H1074.69V67.4541C1074.69 65.9486 1074.16 64.6668 1073.1 63.6089C1072 62.5509 1070.7 62.022 1069.19 62.022H1067.42V102H1056.5V14.7197ZM1065.59 52.9277V23.814H1072.86C1073.87 23.814 1074.73 24.1802 1075.42 24.9126C1076.15 25.6043 1076.52 26.4588 1076.52 27.4761V45.6646C1076.52 47.6584 1075.81 49.3674 1074.38 50.7915C1072.96 52.2157 1071.23 52.9277 1069.19 52.9277H1065.59ZM1076.52 16.5508H1058.33V100.169H1065.59V60.1909H1069.19C1071.23 60.1909 1072.96 60.903 1074.38 62.3271C1075.81 63.7513 1076.52 65.4603 1076.52 67.4541V100.169H1083.78V67.4541C1083.78 63.7513 1082.54 60.5164 1080.06 57.7495L1078.96 56.5288L1080.06 55.3691C1082.54 52.6022 1083.78 49.3674 1083.78 45.6646V23.814C1083.78 21.8201 1083.07 20.1112 1081.65 18.687C1080.22 17.2629 1078.51 16.5508 1076.52 16.5508ZM1103.25 91.0747H1106.91C1108.13 91.0747 1108.75 90.4847 1108.75 89.3047V27.4761C1108.75 26.2554 1108.13 25.645 1106.91 25.645H1103.25C1102.07 25.645 1101.48 26.2554 1101.48 27.4761V89.3047C1101.48 90.4847 1102.07 91.0747 1103.25 91.0747ZM1099.65 14.7197H1110.58C1113.06 14.7197 1115.19 15.6149 1116.98 17.4053C1118.78 19.1956 1119.67 21.3319 1119.67 23.814V92.9058C1119.67 95.4285 1118.78 97.5648 1116.98 99.3145C1115.19 101.105 1113.06 102 1110.58 102H1099.65C1097.13 102 1094.99 101.105 1093.24 99.3145C1091.45 97.5648 1090.56 95.4285 1090.56 92.9058V23.814C1090.56 21.3319 1091.45 19.1956 1093.24 17.4053C1094.99 15.6149 1097.13 14.7197 1099.65 14.7197ZM1106.91 92.9058H1103.25C1102.28 92.9058 1101.42 92.5599 1100.69 91.8682C1100 91.1357 1099.65 90.2812 1099.65 89.3047V27.4761C1099.65 26.4588 1100 25.6043 1100.69 24.9126C1101.42 24.1802 1102.28 23.814 1103.25 23.814H1106.91C1107.93 23.814 1108.79 24.1802 1109.48 24.9126C1110.21 25.6043 1110.58 26.4588 1110.58 27.4761V89.3047C1110.58 90.2812 1110.21 91.1357 1109.48 91.8682C1108.79 92.5599 1107.93 92.9058 1106.91 92.9058ZM1110.58 16.5508H1099.65C1097.66 16.5508 1095.95 17.2629 1094.52 18.687C1093.1 20.1112 1092.39 21.8201 1092.39 23.814V92.9058C1092.39 94.8996 1093.1 96.6086 1094.52 98.0327C1095.95 99.4569 1097.66 100.169 1099.65 100.169H1110.58C1112.57 100.169 1114.28 99.4569 1115.7 98.0327C1117.13 96.6086 1117.84 94.8996 1117.84 92.9058V23.814C1117.84 21.8201 1117.13 20.1112 1115.7 18.687C1114.28 17.2629 1112.57 16.5508 1110.58 16.5508ZM1144.63 14.7197V92.9058C1144.63 95.4285 1143.74 97.5648 1141.95 99.3145C1140.16 101.105 1138.02 102 1135.54 102H1124.61V91.0747H1131.88C1133.1 91.0747 1133.71 90.4847 1133.71 89.3047V14.7197H1144.63ZM1142.8 16.5508H1135.54V89.3047C1135.54 90.2812 1135.17 91.1357 1134.44 91.8682C1133.75 92.5599 1132.89 92.9058 1131.88 92.9058H1126.45V100.169H1135.54C1137.53 100.169 1139.24 99.4569 1140.67 98.0327C1142.09 96.6086 1142.8 94.8996 1142.8 92.9058V16.5508ZM1149.52 14.7197H1176.8V25.645H1160.44V51.0967H1169.54V62.022H1160.44V91.0747H1176.8V102H1149.52V14.7197ZM1151.35 16.5508V100.169H1174.97V92.9058H1158.61V60.1909H1167.71V52.9277H1158.61V23.814H1174.97V16.5508H1151.35ZM1187.18 14.7197H1205.36C1206.87 14.7197 1208.15 15.269 1209.21 16.3677C1210.31 17.4256 1210.86 18.7074 1210.86 20.2129V43.8335H1199.93V27.4761C1199.93 26.2554 1199.32 25.645 1198.1 25.645H1194.44C1193.26 25.645 1192.67 26.2554 1192.67 27.4761V89.3047C1192.67 90.4847 1193.26 91.0747 1194.44 91.0747H1198.1C1199.32 91.0747 1199.93 90.4847 1199.93 89.3047V72.8862H1210.86V96.5679C1210.86 98.0734 1210.31 99.3551 1209.21 100.413C1208.15 101.471 1206.87 102 1205.36 102H1187.18C1185.67 102 1184.39 101.471 1183.33 100.413C1182.27 99.3551 1181.74 98.0734 1181.74 96.5679V20.2129C1181.74 18.7074 1182.27 17.4256 1183.33 16.3677C1184.39 15.269 1185.67 14.7197 1187.18 14.7197ZM1205.36 16.5508H1187.18C1186.2 16.5508 1185.34 16.917 1184.61 17.6494C1183.92 18.3411 1183.57 19.1956 1183.57 20.2129V96.5679C1183.57 97.5444 1183.92 98.3989 1184.61 99.1313C1185.34 99.8231 1186.2 100.169 1187.18 100.169H1205.36C1206.38 100.169 1207.24 99.8231 1207.93 99.1313C1208.66 98.3989 1209.03 97.5444 1209.03 96.5679V74.7173H1201.76V89.3047C1201.76 90.2812 1201.4 91.1357 1200.66 91.8682C1199.97 92.5599 1199.12 92.9058 1198.1 92.9058H1194.44C1193.46 92.9058 1192.61 92.5599 1191.88 91.8682C1191.18 91.1357 1190.84 90.2812 1190.84 89.3047V27.4761C1190.84 26.4588 1191.18 25.6043 1191.88 24.9126C1192.61 24.1802 1193.46 23.814 1194.44 23.814H1198.1C1199.12 23.814 1199.97 24.1802 1200.66 24.9126C1201.4 25.6043 1201.76 26.4588 1201.76 27.4761V42.0024H1209.03V20.2129C1209.03 19.1956 1208.66 18.3411 1207.93 17.6494C1207.24 16.917 1206.38 16.5508 1205.36 16.5508ZM1215.8 14.7197H1244.91V25.645H1235.82V102H1224.9V25.645H1215.8V14.7197ZM1217.63 16.5508V23.814H1226.73V100.169H1233.99V23.814H1243.08V16.5508H1217.63ZM1258.95 14.7197H1269.88C1272.36 14.7197 1274.5 15.6149 1276.29 17.4053C1278.08 19.1956 1278.97 21.3319 1278.97 23.814V43.8335H1268.05V27.4761C1268.05 26.2554 1267.44 25.645 1266.22 25.645H1262.55C1261.37 25.645 1260.78 26.2554 1260.78 27.4761V43.1621C1260.78 43.569 1260.91 43.9352 1261.15 44.2607L1276.29 63.9751C1278.08 66.2537 1278.97 68.8376 1278.97 71.7266V92.9058C1278.97 95.4285 1278.08 97.5648 1276.29 99.3145C1274.5 101.105 1272.36 102 1269.88 102H1258.95C1256.43 102 1254.29 101.105 1252.54 99.3145C1250.75 97.5648 1249.86 95.4285 1249.86 92.9058V72.8862H1260.78V89.3047C1260.78 90.4847 1261.37 91.0747 1262.55 91.0747H1266.22C1267.44 91.0747 1268.05 90.4847 1268.05 89.3047V71.7266C1268.05 71.3197 1267.92 70.9535 1267.68 70.6279L1252.48 50.9136C1250.73 48.6349 1249.86 46.0511 1249.86 43.1621V23.814C1249.86 21.3319 1250.75 19.1956 1252.54 17.4053C1254.29 15.6149 1256.43 14.7197 1258.95 14.7197ZM1269.88 16.5508H1258.95C1256.96 16.5508 1255.25 17.2629 1253.83 18.687C1252.4 20.1112 1251.69 21.8201 1251.69 23.814V43.1621C1251.69 45.6442 1252.44 47.8618 1253.95 49.8149L1269.08 69.5293C1269.61 70.1803 1269.88 70.9128 1269.88 71.7266V89.3047C1269.88 90.2812 1269.51 91.1357 1268.78 91.8682C1268.09 92.5599 1267.23 92.9058 1266.22 92.9058H1262.55C1261.58 92.9058 1260.72 92.5599 1259.99 91.8682C1259.3 91.1357 1258.95 90.2812 1258.95 89.3047V74.7173H1251.69V92.9058C1251.69 94.8996 1252.4 96.6086 1253.83 98.0327C1255.25 99.4569 1256.96 100.169 1258.95 100.169H1269.88C1271.87 100.169 1273.58 99.4569 1275 98.0327C1276.43 96.6086 1277.14 94.8996 1277.14 92.9058V71.7266C1277.14 69.2852 1276.39 67.0675 1274.88 65.0737L1259.69 45.3594C1259.2 44.7083 1258.95 43.9759 1258.95 43.1621V27.4761C1258.95 26.4588 1259.3 25.6043 1259.99 24.9126C1260.72 24.1802 1261.58 23.814 1262.55 23.814H1266.22C1267.23 23.814 1268.09 24.1802 1268.78 24.9126C1269.51 25.6043 1269.88 26.4588 1269.88 27.4761V42.0024H1277.14V23.814C1277.14 21.8201 1276.43 20.1112 1275 18.687C1273.58 17.2629 1271.87 16.5508 1269.88 16.5508Z" fill="#E2E8F0" fill-opacity="0.4"/>
</g>
<defs>
<clipPath id="clip0_453_2">
<rect width="2308" height="115" fill="white"/>
</clipPath>
</defs>
</svg>
