<svg width="413" height="115" viewBox="0 0 413 115" fill="none" xmlns="http://www.w3.org/2000/svg">
<g clip-path="url(#clip0_465_18)">
<path d="M101.367 51.0967H106.799C108.02 51.0967 108.63 50.4863 108.63 49.2656V27.4761C108.63 26.2554 108.02 25.645 106.799 25.645H101.367V51.0967ZM90.4414 14.7197H110.461C112.943 14.7197 115.079 15.6149 116.87 17.4053C118.66 19.1956 119.555 21.3319 119.555 23.814V52.9277C119.555 55.4098 118.66 57.5461 116.87 59.3364C115.079 61.1268 112.943 62.022 110.461 62.022H101.367V102H90.4414V14.7197ZM99.5356 52.9277V23.814H106.799C107.816 23.814 108.671 24.1802 109.362 24.9126C110.095 25.6043 110.461 26.4588 110.461 27.4761V49.2656C110.461 50.2829 110.095 51.1374 109.362 51.8291C108.671 52.5615 107.816 52.9277 106.799 52.9277H99.5356ZM110.461 16.5508H92.2725V100.169H99.5356V60.1909H110.461C112.455 60.1909 114.164 59.4788 115.588 58.0547C117.012 56.6305 117.724 54.9215 117.724 52.9277V23.814C117.724 21.8201 117.012 20.1112 115.588 18.687C114.164 17.2629 112.455 16.5508 110.461 16.5508ZM153.613 14.7197V92.9058C153.613 95.4285 152.718 97.5648 150.927 99.3145C149.137 101.105 147.001 102 144.519 102H133.593C131.07 102 128.934 101.105 127.185 99.3145C125.394 97.5648 124.499 95.4285 124.499 92.9058V14.7197H135.424V89.3047C135.424 90.4847 136.014 91.0747 137.194 91.0747H140.856C142.077 91.0747 142.688 90.4847 142.688 89.3047V14.7197H153.613ZM151.782 16.5508H144.519V89.3047C144.519 90.2812 144.152 91.1357 143.42 91.8682C142.728 92.5599 141.874 92.9058 140.856 92.9058H137.194C136.218 92.9058 135.363 92.5599 134.631 91.8682C133.939 91.1357 133.593 90.2812 133.593 89.3047V16.5508H126.33V92.9058C126.33 94.8996 127.042 96.6086 128.466 98.0327C129.89 99.4569 131.599 100.169 133.593 100.169H144.519C146.512 100.169 148.221 99.4569 149.646 98.0327C151.07 96.6086 151.782 94.8996 151.782 92.9058V16.5508ZM178.576 14.7197H189.44V102H178.82L169.482 61.9609V102H158.557V14.7197H169.604L178.576 52.9277V14.7197ZM180.346 16.5508V68.6748L176.806 53.355L168.2 16.5508H160.388V100.169H167.651V46.2139L171.252 61.5337L180.285 100.169H187.67V16.5508H180.346ZM194.323 14.7197H221.606V25.645H205.249V51.0967H214.343V62.022H205.249V91.0747H221.606V102H194.323V14.7197ZM196.154 16.5508V100.169H219.775V92.9058H203.417V60.1909H212.512V52.9277H203.417V23.814H219.775V16.5508H196.154ZM226.55 14.7197H253.833V25.645H237.475V51.0967H246.569V62.022H237.475V91.0747H253.833V102H226.55V14.7197ZM228.381 16.5508V100.169H252.001V92.9058H235.644V60.1909H244.738V52.9277H235.644V23.814H252.001V16.5508H228.381ZM258.776 14.7197H287.89V25.645H278.796V102H267.871V25.645H258.776V14.7197ZM260.607 16.5508V23.814H269.702V100.169H276.965V23.814H286.059V16.5508H260.607ZM311.022 14.7197H321.948V102H311.022V62.022H303.759V102H292.834V14.7197H303.759V51.0967H311.022V14.7197ZM312.854 52.9277H301.928V16.5508H294.665V100.169H301.928V60.1909H312.854V100.169H320.117V16.5508H312.854V52.9277Z" fill="#E2E8F0" fill-opacity="0.75"/>
</g>
<defs>
<clipPath id="clip0_465_18">
<rect width="413" height="115" fill="white"/>
</clipPath>
</defs>
</svg>
