<svg width="413" height="115" viewBox="0 0 413 115" fill="none" xmlns="http://www.w3.org/2000/svg">
<g clip-path="url(#clip0_465_20)">
<path d="M133.367 51.0967H135.137C136.683 51.0967 137.985 50.5677 139.043 49.5098C140.101 48.4518 140.63 47.1701 140.63 45.6646V27.4761C140.63 26.2554 140.02 25.645 138.799 25.645H133.367V51.0967ZM122.441 14.7197H142.461C144.943 14.7197 147.079 15.6149 148.87 17.4053C150.66 19.1956 151.555 21.3319 151.555 23.814V45.6646C151.555 49.8149 150.151 53.4364 147.344 56.5288C150.151 59.6619 151.555 63.3037 151.555 67.4541V102H140.63V67.4541C140.63 65.9486 140.101 64.6668 139.043 63.6089C137.944 62.5509 136.642 62.022 135.137 62.022H133.367V102H122.441V14.7197ZM131.536 52.9277V23.814H138.799C139.816 23.814 140.671 24.1802 141.362 24.9126C142.095 25.6043 142.461 26.4588 142.461 27.4761V45.6646C142.461 47.6584 141.749 49.3674 140.325 50.7915C138.901 52.2157 137.171 52.9277 135.137 52.9277H131.536ZM142.461 16.5508H124.272V100.169H131.536V60.1909H135.137C137.171 60.1909 138.901 60.903 140.325 62.3271C141.749 63.7513 142.461 65.4603 142.461 67.4541V100.169H149.724V67.4541C149.724 63.7513 148.483 60.5164 146.001 57.7495L144.902 56.5288L146.001 55.3691C148.483 52.6022 149.724 49.3674 149.724 45.6646V23.814C149.724 21.8201 149.012 20.1112 147.588 18.687C146.164 17.2629 144.455 16.5508 142.461 16.5508ZM156.499 14.7197H183.782V25.645H167.424V51.0967H176.519V62.022H167.424V91.0747H183.782V102H156.499V14.7197ZM158.33 16.5508V100.169H181.951V92.9058H165.593V60.1909H174.688V52.9277H165.593V23.814H181.951V16.5508H158.33ZM199.651 91.0747H205.083C206.304 91.0747 206.914 90.4847 206.914 89.3047V27.4761C206.914 26.2554 206.304 25.645 205.083 25.645H199.651V91.0747ZM188.726 14.7197H208.745C211.227 14.7197 213.363 15.6149 215.154 17.4053C216.944 19.1956 217.839 21.3319 217.839 23.814V92.9058C217.839 95.4285 216.944 97.5648 215.154 99.3145C213.363 101.105 211.227 102 208.745 102H188.726V14.7197ZM197.82 92.9058V23.814H205.083C206.1 23.814 206.955 24.1802 207.646 24.9126C208.379 25.6043 208.745 26.4588 208.745 27.4761V89.3047C208.745 90.2812 208.379 91.1357 207.646 91.8682C206.955 92.5599 206.1 92.9058 205.083 92.9058H197.82ZM208.745 16.5508H190.557V100.169H208.745C210.739 100.169 212.448 99.4569 213.872 98.0327C215.296 96.6086 216.008 94.8996 216.008 92.9058V23.814C216.008 21.8201 215.296 20.1112 213.872 18.687C212.448 17.2629 210.739 16.5508 208.745 16.5508ZM233.708 91.0747H239.141C240.361 91.0747 240.972 90.4847 240.972 89.3047V27.4761C240.972 26.2554 240.361 25.645 239.141 25.645H233.708V91.0747ZM222.783 14.7197H242.803C245.285 14.7197 247.421 15.6149 249.211 17.4053C251.002 19.1956 251.897 21.3319 251.897 23.814V92.9058C251.897 95.4285 251.002 97.5648 249.211 99.3145C247.421 101.105 245.285 102 242.803 102H222.783V14.7197ZM231.877 92.9058V23.814H239.141C240.158 23.814 241.012 24.1802 241.704 24.9126C242.437 25.6043 242.803 26.4588 242.803 27.4761V89.3047C242.803 90.2812 242.437 91.1357 241.704 91.8682C241.012 92.5599 240.158 92.9058 239.141 92.9058H231.877ZM242.803 16.5508H224.614V100.169H242.803C244.797 100.169 246.506 99.4569 247.93 98.0327C249.354 96.6086 250.066 94.8996 250.066 92.9058V23.814C250.066 21.8201 249.354 20.1112 247.93 18.687C246.506 17.2629 244.797 16.5508 242.803 16.5508ZM277.959 14.7197H289.067L278.386 71.6045V102H267.522V71.6045L256.841 14.7197H267.949L272.954 41.5142L277.959 14.7197ZM274.724 41.8193L272.954 51.3408L271.184 41.8193L266.423 16.5508H259.038L269.292 71.2383V71.4214V100.169H276.616V71.4214V71.2383L286.87 16.5508H279.485L274.724 41.8193Z" fill="#E2E8F0" fill-opacity="0.75"/>
</g>
<defs>
<clipPath id="clip0_465_20">
<rect width="413" height="115" fill="white"/>
</clipPath>
</defs>
</svg>
