<svg width="115" height="2308" viewBox="0 0 115 2308" fill="none" xmlns="http://www.w3.org/2000/svg">
<g clip-path="url(#clip0_444_4)">
<path d="M26 1039.6C26 1034.33 27.5 1030.3 30.5 1027.5C33.5 1024.77 37.7333 1023.4 43.2 1023.4H80.8C86.2667 1023.4 90.5 1024.77 93.5 1027.5C96.5 1030.3 98 1034.33 98 1039.6C98 1044.87 96.5 1048.87 93.5 1051.6C90.5 1054.4 86.2667 1055.8 80.8 1055.8H73.4V1045.4H81.5C85.8333 1045.4 88 1043.57 88 1039.9C88 1036.23 85.8333 1034.4 81.5 1034.4H42.4C38.1333 1034.4 36 1036.23 36 1039.9C36 1043.57 38.1333 1045.4 42.4 1045.4H53.1V1055.8H43.2C37.7333 1055.8 33.5 1054.4 30.5 1051.6C27.5 1048.87 26 1044.87 26 1039.6ZM26 1078.48C26 1073.08 27.5333 1068.94 30.6 1066.08C33.6667 1063.21 38 1061.78 43.6 1061.78H80.4C86 1061.78 90.3333 1063.21 93.4 1066.08C96.4667 1068.94 98 1073.08 98 1078.48C98 1083.88 96.4667 1088.01 93.4 1090.88C90.3333 1093.74 86 1095.18 80.4 1095.18H43.6C38 1095.18 33.6667 1093.74 30.6 1090.88C27.5333 1088.01 26 1083.88 26 1078.48ZM36 1078.48C36 1082.28 38.3 1084.18 42.9 1084.18H81.1C85.7 1084.18 88 1082.28 88 1078.48C88 1074.68 85.7 1072.78 81.1 1072.78H42.9C38.3 1072.78 36 1074.68 36 1078.48ZM97 1102.62V1116.42L55.1 1127.12V1127.32H97V1137.12H27L27 1125.82L78.1 1112.62V1112.42H27V1102.62H97ZM87 1153.89V1142.39H97V1176.39H87V1164.89H27V1153.89H87ZM97 1185.63V1200.53L27 1211.93V1200.93L40.9 1198.93H40.7V1186.43L27 1184.43V1174.23L97 1185.63ZM50.2 1197.63L84.8 1192.73V1192.53L50.2 1187.73V1197.63ZM26 1232.57C26 1227.3 27.5 1223.27 30.5 1220.47C33.5 1217.74 37.7333 1216.37 43.2 1216.37H80.8C86.2667 1216.37 90.5 1217.74 93.5 1220.47C96.5 1223.27 98 1227.3 98 1232.57C98 1237.84 96.5 1241.84 93.5 1244.57C90.5 1247.37 86.2667 1248.77 80.8 1248.77H73.4V1238.37H81.5C85.8333 1238.37 88 1236.54 88 1232.87C88 1229.2 85.8333 1227.37 81.5 1227.37H42.4C38.1333 1227.37 36 1229.2 36 1232.87C36 1236.54 38.1333 1238.37 42.4 1238.37H53.1V1248.77H43.2C37.7333 1248.77 33.5 1247.37 30.5 1244.57C27.5 1241.84 26 1237.84 26 1232.57ZM87 1263.95V1252.45H97L97 1286.45H87L87 1274.95H27V1263.95H87Z" fill="#E2E8F0" fill-opacity="0.4"/>
</g>
<defs>
<clipPath id="clip0_444_4">
<rect width="2308" height="115" fill="white" transform="matrix(0 1 -1 0 115 0)"/>
</clipPath>
</defs>
</svg>
